<svg width="18" height="18" viewBox="0 0 18 18" fill="none" xmlns="http://www.w3.org/2000/svg">
<rect width="18" height="18" fill="#E5E5E5"/>
<rect x="-459" y="-463" width="1440" height="1350" fill="#F4F4F6"/>
<g filter="url(#filter0_d)">
<rect x="-319" y="-313" width="380" height="374" rx="4" fill="white"/>
<rect x="-318.5" y="-312.5" width="379" height="373" rx="3.5" stroke="black" stroke-opacity="0.12"/>
</g>
<path d="M-289 9C-289 -3.15026 -279.15 -13 -267 -13H9C21.1503 -13 31 -3.15026 31 9C31 21.1503 21.1503 31 9 31H-267C-279.15 31 -289 21.1503 -289 9Z" fill="url(#paint0_linear)"/>
<path d="M9 0.984375L17.0156 9L9 17.0156L7.59375 15.6094L13.1719 9.98438H0.984375V8.01562H13.1719L7.59375 2.39062L9 0.984375Z" fill="white"/>
<defs>
<filter id="filter0_d" x="-344" y="-338" width="430" height="424" filterUnits="userSpaceOnUse" color-interpolation-filters="sRGB">
<feFlood flood-opacity="0" result="BackgroundImageFix"/>
<feColorMatrix in="SourceAlpha" type="matrix" values="0 0 0 0 0 0 0 0 0 0 0 0 0 0 0 0 0 0 127 0"/>
<feOffset/>
<feGaussianBlur stdDeviation="12.5"/>
<feColorMatrix type="matrix" values="0 0 0 0 0 0 0 0 0 0 0 0 0 0 0 0 0 0 0.2 0"/>
<feBlend mode="normal" in2="BackgroundImageFix" result="effect1_dropShadow"/>
<feBlend mode="normal" in="SourceGraphic" in2="effect1_dropShadow" result="shape"/>
</filter>
<linearGradient id="paint0_linear" x1="-129" y1="-13" x2="-129" y2="31" gradientUnits="userSpaceOnUse">
<stop stop-color="#BC9CFF"/>
<stop offset="1" stop-color="#8BA4F9"/>
</linearGradient>
</defs>
</svg>
