<svg width="20" height="20" viewBox="0 0 20 20" fill="none" xmlns="http://www.w3.org/2000/svg">
<rect width="20" height="20" fill="#E5E5E5"/>
<rect x="-810" y="-441" width="1440" height="1350" fill="#F4F4F6"/>
<g filter="url(#filter0_d)">
<rect x="-250" y="-291" width="380" height="511" rx="4" fill="white"/>
<rect x="-249.5" y="-290.5" width="379" height="510" rx="3.5" stroke="black" stroke-opacity="0.12"/>
</g>
<circle cx="10" cy="10" r="9.5" stroke="#1F2041" stroke-opacity="0.25"/>
<path d="M9.25463 7.544H11.1266V14H9.25463V7.544ZM10.1906 6.644C9.84663 6.644 9.56663 6.544 9.35063 6.344C9.13463 6.144 9.02663 5.896 9.02663 5.6C9.02663 5.304 9.13463 5.056 9.35063 4.856C9.56663 4.656 9.84663 4.556 10.1906 4.556C10.5346 4.556 10.8146 4.652 11.0306 4.844C11.2466 5.036 11.3546 5.276 11.3546 5.564C11.3546 5.876 11.2466 6.136 11.0306 6.344C10.8146 6.544 10.5346 6.644 10.1906 6.644Z" fill="#1F2041" fill-opacity="0.25"/>
<defs>
<filter id="filter0_d" x="-275" y="-316" width="430" height="561" filterUnits="userSpaceOnUse" color-interpolation-filters="sRGB">
<feFlood flood-opacity="0" result="BackgroundImageFix"/>
<feColorMatrix in="SourceAlpha" type="matrix" values="0 0 0 0 0 0 0 0 0 0 0 0 0 0 0 0 0 0 127 0"/>
<feOffset/>
<feGaussianBlur stdDeviation="12.5"/>
<feColorMatrix type="matrix" values="0 0 0 0 0 0 0 0 0 0 0 0 0 0 0 0 0 0 0.2 0"/>
<feBlend mode="normal" in2="BackgroundImageFix" result="effect1_dropShadow"/>
<feBlend mode="normal" in="SourceGraphic" in2="effect1_dropShadow" result="shape"/>
</filter>
</defs>
</svg>
