<svg width="22" height="22" viewBox="0 0 22 22" fill="none" xmlns="http://www.w3.org/2000/svg">
<rect width="22" height="22" fill="#E5E5E5"/>
<g clip-path="url(#clip0)">
<rect x="-1233" y="-767" width="1440" height="1350" fill="#F4F4F6"/>
<g filter="url(#filter0_d)">
<rect x="-1233" y="-24" width="1440" height="70" fill="white"/>
</g>
<path d="M21.5 2.75V19.25C21.5 19.875 21.2812 20.4062 20.8438 20.8438C20.4062 21.2812 19.875 21.5 19.25 21.5H15.2656V13.2031H18.0781L18.5 10.0156H15.2656V8C15.2656 7.5 15.3594 7.125 15.5469 6.875C15.7969 6.59375 16.2188 6.45312 16.8125 6.45312H18.5V3.64062C17.8438 3.54688 17.0312 3.5 16.0625 3.5C14.8125 3.5 13.8125 3.875 13.0625 4.625C12.3438 5.34375 11.9844 6.35938 11.9844 7.67188V10.0156H9.125V13.2031H11.9844V21.5H2.75C2.125 21.5 1.59375 21.2812 1.15625 20.8438C0.71875 20.4062 0.5 19.875 0.5 19.25V2.75C0.5 2.125 0.71875 1.59375 1.15625 1.15625C1.59375 0.71875 2.125 0.5 2.75 0.5H19.25C19.875 0.5 20.4062 0.71875 20.8438 1.15625C21.2812 1.59375 21.5 2.125 21.5 2.75Z" fill="url(#paint0_linear)"/>
</g>
<defs>
<filter id="filter0_d" x="-1253" y="-34" width="1480" height="110" filterUnits="userSpaceOnUse" color-interpolation-filters="sRGB">
<feFlood flood-opacity="0" result="BackgroundImageFix"/>
<feColorMatrix in="SourceAlpha" type="matrix" values="0 0 0 0 0 0 0 0 0 0 0 0 0 0 0 0 0 0 127 0"/>
<feOffset dy="10"/>
<feGaussianBlur stdDeviation="10"/>
<feColorMatrix type="matrix" values="0 0 0 0 0.121569 0 0 0 0 0.12549 0 0 0 0 0.254902 0 0 0 0.05 0"/>
<feBlend mode="normal" in2="BackgroundImageFix" result="effect1_dropShadow"/>
<feBlend mode="normal" in="SourceGraphic" in2="effect1_dropShadow" result="shape"/>
</filter>
<linearGradient id="paint0_linear" x1="11" y1="-1" x2="11" y2="23" gradientUnits="userSpaceOnUse">
<stop stop-color="#BC9CFF"/>
<stop offset="1" stop-color="#8BA4F9"/>
</linearGradient>
<clipPath id="clip0">
<rect x="-1233" y="-767" width="1440" height="1350" fill="white"/>
</clipPath>
</defs>
</svg>
